<mxfile host="app.diagrams.net" modified="2024-06-08T20:41:39.978Z" agent="Mozilla/5.0 (Windows NT 10.0; Win64; x64) AppleWebKit/537.36 (KHTML, like Gecko) Chrome/125.0.0.0 Safari/537.36" etag="_500xiFuybi6eNOwbfVS" version="24.5.2" type="github">
  <diagram name="Page-1" id="b5b7bab2-c9e2-2cf4-8b2a-24fd1a2a6d21">
    <mxGraphModel dx="1120" dy="468" grid="1" gridSize="10" guides="1" tooltips="1" connect="1" arrows="1" fold="1" page="1" pageScale="1" pageWidth="827" pageHeight="1169" background="none" math="0" shadow="0">
      <root>
        <mxCell id="0" />
        <mxCell id="1" parent="0" />
        <mxCell id="6e0c8c40b5770093-73" value="&lt;font style=&quot;font-size: 12px;&quot;&gt;&lt;b&gt;Roomy&lt;/b&gt;&lt;/font&gt;" style="text;html=1;align=left;verticalAlign=top;spacingTop=-4;fontSize=10;fontFamily=Verdana" parent="1" vertex="1">
          <mxGeometry x="1060" y="10" width="130" height="20" as="geometry" />
        </mxCell>
        <mxCell id="R5bhTOrszpY0GJRiHTYa-18" value="User&lt;div&gt;&lt;br&gt;&lt;/div&gt;" style="shape=module;align=left;spacingLeft=20;align=center;verticalAlign=top;whiteSpace=wrap;html=1;" vertex="1" parent="1">
          <mxGeometry x="800" y="210" width="100" height="50" as="geometry" />
        </mxCell>
        <mxCell id="R5bhTOrszpY0GJRiHTYa-24" value="" style="endArrow=classic;html=1;rounded=0;" edge="1" parent="1" target="R5bhTOrszpY0GJRiHTYa-7">
          <mxGeometry width="50" height="50" relative="1" as="geometry">
            <mxPoint x="1079" y="270" as="sourcePoint" />
            <mxPoint x="781" y="512" as="targetPoint" />
          </mxGeometry>
        </mxCell>
        <mxCell id="R5bhTOrszpY0GJRiHTYa-37" value="send or receive messages" style="edgeLabel;html=1;align=center;verticalAlign=middle;resizable=0;points=[];" vertex="1" connectable="0" parent="R5bhTOrszpY0GJRiHTYa-24">
          <mxGeometry x="-0.5289" y="2" relative="1" as="geometry">
            <mxPoint x="20" y="16" as="offset" />
          </mxGeometry>
        </mxCell>
        <mxCell id="R5bhTOrszpY0GJRiHTYa-26" value="" style="endArrow=classic;html=1;rounded=0;entryX=0.186;entryY=0.769;entryDx=0;entryDy=0;entryPerimeter=0;exitX=1;exitY=0.75;exitDx=0;exitDy=0;" edge="1" parent="1" source="R5bhTOrszpY0GJRiHTYa-18" target="R5bhTOrszpY0GJRiHTYa-21">
          <mxGeometry width="50" height="50" relative="1" as="geometry">
            <mxPoint x="820" y="300" as="sourcePoint" />
            <mxPoint x="870" y="250" as="targetPoint" />
          </mxGeometry>
        </mxCell>
        <mxCell id="R5bhTOrszpY0GJRiHTYa-34" value="Uses" style="edgeLabel;html=1;align=center;verticalAlign=middle;resizable=0;points=[];" vertex="1" connectable="0" parent="R5bhTOrszpY0GJRiHTYa-26">
          <mxGeometry x="-0.2999" relative="1" as="geometry">
            <mxPoint as="offset" />
          </mxGeometry>
        </mxCell>
        <mxCell id="R5bhTOrszpY0GJRiHTYa-28" value="" style="endArrow=classic;html=1;rounded=0;" edge="1" parent="1" target="R5bhTOrszpY0GJRiHTYa-4">
          <mxGeometry width="50" height="50" relative="1" as="geometry">
            <mxPoint x="790" y="640" as="sourcePoint" />
            <mxPoint x="840" y="590" as="targetPoint" />
          </mxGeometry>
        </mxCell>
        <mxCell id="R5bhTOrszpY0GJRiHTYa-38" value="Room activity" style="edgeLabel;html=1;align=center;verticalAlign=middle;resizable=0;points=[];" vertex="1" connectable="0" parent="R5bhTOrszpY0GJRiHTYa-28">
          <mxGeometry x="-0.1208" y="-7" relative="1" as="geometry">
            <mxPoint as="offset" />
          </mxGeometry>
        </mxCell>
        <mxCell id="R5bhTOrszpY0GJRiHTYa-44" value="Package" style="shape=folder;fontStyle=1;tabWidth=110;tabHeight=30;tabPosition=left;html=1;boundedLbl=1;labelInHeader=1;container=1;collapsible=0;whiteSpace=wrap;" vertex="1" parent="1">
          <mxGeometry x="30" y="160" width="1110" height="790" as="geometry" />
        </mxCell>
        <mxCell id="R5bhTOrszpY0GJRiHTYa-45" value="" style="html=1;strokeColor=none;resizeWidth=1;resizeHeight=1;fillColor=none;part=1;connectable=0;allowArrows=0;deletable=0;whiteSpace=wrap;" vertex="1" parent="R5bhTOrszpY0GJRiHTYa-44">
          <mxGeometry width="1110.0000000000002" height="301.6363636363636" relative="1" as="geometry">
            <mxPoint y="30" as="offset" />
          </mxGeometry>
        </mxCell>
        <mxCell id="R5bhTOrszpY0GJRiHTYa-19" value="" style="group" vertex="1" connectable="0" parent="R5bhTOrszpY0GJRiHTYa-44">
          <mxGeometry x="593.279051724138" y="139.9978787878788" width="314.50000000000006" height="131.66666666666669" as="geometry" />
        </mxCell>
        <mxCell id="R5bhTOrszpY0GJRiHTYa-20" value="" style="shape=folder;fontStyle=1;spacingTop=10;tabWidth=123;tabHeight=24;tabPosition=left;html=1;rounded=0;shadow=0;comic=0;labelBackgroundColor=none;strokeWidth=1;fontFamily=Verdana;fontSize=10;align=center;" vertex="1" parent="R5bhTOrszpY0GJRiHTYa-19">
          <mxGeometry x="-17.472222222222214" width="331.9722222222223" height="125.3945454545455" as="geometry" />
        </mxCell>
        <mxCell id="R5bhTOrszpY0GJRiHTYa-21" value="&lt;font face=&quot;Verdana&quot;&gt;&lt;span style=&quot;font-size: 10px; text-wrap: nowrap;&quot;&gt;&lt;b&gt;User Interface&lt;/b&gt;&lt;/span&gt;&lt;/font&gt;" style="shape=module;align=left;spacingLeft=20;align=center;verticalAlign=top;whiteSpace=wrap;html=1;" vertex="1" parent="R5bhTOrszpY0GJRiHTYa-19">
          <mxGeometry x="34.94444444444443" y="43.8928787878788" width="209.6666666666667" height="51.86469696969698" as="geometry" />
        </mxCell>
        <mxCell id="R5bhTOrszpY0GJRiHTYa-22" value="Frontend" style="text;html=1;align=center;verticalAlign=middle;whiteSpace=wrap;rounded=0;" vertex="1" parent="R5bhTOrszpY0GJRiHTYa-19">
          <mxGeometry x="13.680750000000002" y="8.235151515151516" width="41.024777777777786" height="3.746515151515152" as="geometry" />
        </mxCell>
        <mxCell id="6e0c8c40b5770093-24" value="" style="group" parent="R5bhTOrszpY0GJRiHTYa-44" vertex="1" connectable="0">
          <mxGeometry x="593.2758620689656" y="330" width="459.3103448275863" height="230" as="geometry" />
        </mxCell>
        <mxCell id="6e0c8c40b5770093-25" value="" style="shape=folder;fontStyle=1;spacingTop=10;tabWidth=123;tabHeight=24;tabPosition=left;html=1;rounded=0;shadow=0;comic=0;labelBackgroundColor=none;strokeWidth=1;fontFamily=Verdana;fontSize=10;align=center;" parent="6e0c8c40b5770093-24" vertex="1">
          <mxGeometry width="452.06663793103445" height="230" as="geometry" />
        </mxCell>
        <mxCell id="R5bhTOrszpY0GJRiHTYa-4" value="&lt;span style=&quot;font-family: Verdana; font-size: 10px; font-weight: 700; text-wrap: nowrap;&quot;&gt;Notification Service&lt;/span&gt;" style="shape=module;align=left;spacingLeft=20;align=center;verticalAlign=top;whiteSpace=wrap;html=1;" vertex="1" parent="6e0c8c40b5770093-24">
          <mxGeometry x="287.06896551724145" y="42.88" width="139.0562068965517" height="47.12" as="geometry" />
        </mxCell>
        <mxCell id="R5bhTOrszpY0GJRiHTYa-7" value="&lt;span style=&quot;font-family: Verdana; font-size: 10px; font-weight: 700; text-wrap: nowrap;&quot;&gt;Messaging Service&lt;/span&gt;" style="shape=module;align=left;spacingLeft=20;align=center;verticalAlign=top;whiteSpace=wrap;html=1;" vertex="1" parent="6e0c8c40b5770093-24">
          <mxGeometry x="36.68741379310345" y="138" width="135.87931034482762" height="50.33" as="geometry" />
        </mxCell>
        <mxCell id="R5bhTOrszpY0GJRiHTYa-5" value="&lt;span style=&quot;font-family: Verdana; font-size: 10px; font-weight: 700; text-wrap: nowrap;&quot;&gt;Room Management&lt;/span&gt;&lt;div style=&quot;font-family: Verdana; font-size: 10px; font-weight: 700; text-wrap: nowrap;&quot;&gt;Service&lt;/div&gt;" style="shape=module;align=left;spacingLeft=20;align=center;verticalAlign=top;whiteSpace=wrap;html=1;" vertex="1" parent="6e0c8c40b5770093-24">
          <mxGeometry x="273.02172413793096" y="143.33" width="153.10344827586206" height="56.67" as="geometry" />
        </mxCell>
        <mxCell id="R5bhTOrszpY0GJRiHTYa-6" value="Authentication Service" style="shape=module;align=left;spacingLeft=20;align=center;verticalAlign=top;whiteSpace=wrap;html=1;" vertex="1" parent="6e0c8c40b5770093-24">
          <mxGeometry x="49.92129310344828" y="47.67" width="109.41155172413795" height="52.33" as="geometry" />
        </mxCell>
        <mxCell id="R5bhTOrszpY0GJRiHTYa-8" value="Backend" style="text;html=1;align=center;verticalAlign=middle;whiteSpace=wrap;rounded=0;" vertex="1" parent="6e0c8c40b5770093-24">
          <mxGeometry x="19.970014992503746" width="59.91004497751124" height="13" as="geometry" />
        </mxCell>
        <mxCell id="R5bhTOrszpY0GJRiHTYa-62" style="edgeStyle=orthogonalEdgeStyle;rounded=0;orthogonalLoop=1;jettySize=auto;html=1;entryX=0.449;entryY=1;entryDx=0;entryDy=0;entryPerimeter=0;" edge="1" parent="6e0c8c40b5770093-24" source="R5bhTOrszpY0GJRiHTYa-5" target="R5bhTOrszpY0GJRiHTYa-4">
          <mxGeometry relative="1" as="geometry" />
        </mxCell>
        <mxCell id="R5bhTOrszpY0GJRiHTYa-64" value="Room Activities" style="edgeLabel;html=1;align=center;verticalAlign=middle;resizable=0;points=[];" vertex="1" connectable="0" parent="R5bhTOrszpY0GJRiHTYa-62">
          <mxGeometry x="-0.1641" y="-1" relative="1" as="geometry">
            <mxPoint as="offset" />
          </mxGeometry>
        </mxCell>
        <mxCell id="R5bhTOrszpY0GJRiHTYa-63" style="edgeStyle=orthogonalEdgeStyle;rounded=0;orthogonalLoop=1;jettySize=auto;html=1;entryX=0;entryY=0;entryDx=0;entryDy=35;entryPerimeter=0;" edge="1" parent="6e0c8c40b5770093-24" source="R5bhTOrszpY0GJRiHTYa-7" target="R5bhTOrszpY0GJRiHTYa-4">
          <mxGeometry relative="1" as="geometry" />
        </mxCell>
        <mxCell id="R5bhTOrszpY0GJRiHTYa-65" value="New Messages" style="edgeLabel;html=1;align=center;verticalAlign=middle;resizable=0;points=[];" vertex="1" connectable="0" parent="R5bhTOrszpY0GJRiHTYa-63">
          <mxGeometry x="-0.1346" y="-1" relative="1" as="geometry">
            <mxPoint as="offset" />
          </mxGeometry>
        </mxCell>
        <mxCell id="R5bhTOrszpY0GJRiHTYa-23" value="" style="endArrow=classic;html=1;rounded=0;entryX=0.82;entryY=0.04;entryDx=0;entryDy=0;entryPerimeter=0;" edge="1" parent="R5bhTOrszpY0GJRiHTYa-44" source="R5bhTOrszpY0GJRiHTYa-21" target="R5bhTOrszpY0GJRiHTYa-6">
          <mxGeometry width="50" height="50" relative="1" as="geometry">
            <mxPoint x="925.0000000000002" y="215.45454545454547" as="sourcePoint" />
            <mxPoint x="1017.5000000000002" y="155.60606060606062" as="targetPoint" />
          </mxGeometry>
        </mxCell>
        <mxCell id="R5bhTOrszpY0GJRiHTYa-35" value="Login / Sign-Up" style="edgeLabel;html=1;align=center;verticalAlign=middle;resizable=0;points=[];" vertex="1" connectable="0" parent="R5bhTOrszpY0GJRiHTYa-23">
          <mxGeometry x="-0.3743" y="-2" relative="1" as="geometry">
            <mxPoint x="-40" y="-4" as="offset" />
          </mxGeometry>
        </mxCell>
        <mxCell id="R5bhTOrszpY0GJRiHTYa-11" value="" style="group" vertex="1" connectable="0" parent="R5bhTOrszpY0GJRiHTYa-44">
          <mxGeometry x="224.1364555702918" y="580" width="198.8239655172414" height="111.67" as="geometry" />
        </mxCell>
        <mxCell id="R5bhTOrszpY0GJRiHTYa-12" value="" style="shape=folder;fontStyle=1;spacingTop=10;tabWidth=123;tabHeight=24;tabPosition=left;html=1;rounded=0;shadow=0;comic=0;labelBackgroundColor=none;strokeWidth=1;fontFamily=Verdana;fontSize=10;align=center;" vertex="1" parent="R5bhTOrszpY0GJRiHTYa-11">
          <mxGeometry x="-11.045775862068966" width="209.86974137931043" height="106.35044727272731" as="geometry" />
        </mxCell>
        <mxCell id="R5bhTOrszpY0GJRiHTYa-14" value="&lt;font face=&quot;Verdana&quot;&gt;&lt;span style=&quot;font-size: 10px; text-wrap: nowrap;&quot;&gt;&lt;b&gt;MongoDB&lt;/b&gt;&lt;/span&gt;&lt;/font&gt;" style="shape=module;align=left;spacingLeft=20;align=center;verticalAlign=top;whiteSpace=wrap;html=1;" vertex="1" parent="R5bhTOrszpY0GJRiHTYa-11">
          <mxGeometry x="22.091551724137933" y="37.22671727272728" width="132.5493103448276" height="43.987828181818195" as="geometry" />
        </mxCell>
        <mxCell id="R5bhTOrszpY0GJRiHTYa-17" value="Database" style="text;html=1;align=center;verticalAlign=middle;whiteSpace=wrap;rounded=0;" vertex="1" parent="R5bhTOrszpY0GJRiHTYa-11">
          <mxGeometry x="8.648842500000004" y="6.98445090909091" width="25.93548172413794" height="3.1775190909090916" as="geometry" />
        </mxCell>
        <mxCell id="R5bhTOrszpY0GJRiHTYa-29" style="edgeStyle=orthogonalEdgeStyle;rounded=0;orthogonalLoop=1;jettySize=auto;html=1;entryX=0.84;entryY=-0.051;entryDx=0;entryDy=0;entryPerimeter=0;" edge="1" parent="R5bhTOrszpY0GJRiHTYa-44" source="R5bhTOrszpY0GJRiHTYa-6" target="R5bhTOrszpY0GJRiHTYa-14">
          <mxGeometry relative="1" as="geometry" />
        </mxCell>
        <mxCell id="R5bhTOrszpY0GJRiHTYa-42" value="Store / Retrieve User Data" style="edgeLabel;html=1;align=center;verticalAlign=middle;resizable=0;points=[];" vertex="1" connectable="0" parent="R5bhTOrszpY0GJRiHTYa-29">
          <mxGeometry x="0.0979" y="2" relative="1" as="geometry">
            <mxPoint x="43" y="80" as="offset" />
          </mxGeometry>
        </mxCell>
        <mxCell id="R5bhTOrszpY0GJRiHTYa-47" style="edgeStyle=orthogonalEdgeStyle;rounded=0;orthogonalLoop=1;jettySize=auto;html=1;entryX=0.815;entryY=0.583;entryDx=0;entryDy=0;entryPerimeter=0;" edge="1" parent="R5bhTOrszpY0GJRiHTYa-44" source="R5bhTOrszpY0GJRiHTYa-5" target="R5bhTOrszpY0GJRiHTYa-12">
          <mxGeometry relative="1" as="geometry">
            <Array as="points">
              <mxPoint x="942.4326923076924" y="640" />
              <mxPoint x="631.8461538461539" y="640" />
              <mxPoint x="631.8461538461539" y="642" />
            </Array>
          </mxGeometry>
        </mxCell>
        <mxCell id="R5bhTOrszpY0GJRiHTYa-48" value="Store / Retrieve Room Data" style="edgeLabel;html=1;align=center;verticalAlign=middle;resizable=0;points=[];" vertex="1" connectable="0" parent="R5bhTOrszpY0GJRiHTYa-47">
          <mxGeometry x="-0.1909" y="3" relative="1" as="geometry">
            <mxPoint as="offset" />
          </mxGeometry>
        </mxCell>
        <mxCell id="R5bhTOrszpY0GJRiHTYa-52" style="edgeStyle=orthogonalEdgeStyle;rounded=0;orthogonalLoop=1;jettySize=auto;html=1;entryX=0.062;entryY=0.484;entryDx=0;entryDy=0;entryPerimeter=0;" edge="1" parent="R5bhTOrszpY0GJRiHTYa-44" source="R5bhTOrszpY0GJRiHTYa-49" target="R5bhTOrszpY0GJRiHTYa-21">
          <mxGeometry relative="1" as="geometry">
            <Array as="points">
              <mxPoint x="529.1637931034483" y="210" />
              <mxPoint x="529.1637931034483" y="209" />
            </Array>
          </mxGeometry>
        </mxCell>
        <mxCell id="R5bhTOrszpY0GJRiHTYa-49" value="User&lt;div&gt;&lt;br&gt;&lt;/div&gt;" style="shape=module;align=left;spacingLeft=20;align=center;verticalAlign=top;whiteSpace=wrap;html=1;" vertex="1" parent="R5bhTOrszpY0GJRiHTYa-44">
          <mxGeometry x="334.9137931034483" y="178" width="95.6896551724138" height="50" as="geometry" />
        </mxCell>
        <mxCell id="R5bhTOrszpY0GJRiHTYa-53" style="edgeStyle=orthogonalEdgeStyle;rounded=0;orthogonalLoop=1;jettySize=auto;html=1;" edge="1" parent="R5bhTOrszpY0GJRiHTYa-44" source="R5bhTOrszpY0GJRiHTYa-7" target="R5bhTOrszpY0GJRiHTYa-14">
          <mxGeometry relative="1" as="geometry" />
        </mxCell>
        <mxCell id="R5bhTOrszpY0GJRiHTYa-55" style="edgeStyle=orthogonalEdgeStyle;rounded=0;orthogonalLoop=1;jettySize=auto;html=1;entryX=0.895;entryY=0.118;entryDx=0;entryDy=0;entryPerimeter=0;" edge="1" parent="R5bhTOrszpY0GJRiHTYa-44">
          <mxGeometry relative="1" as="geometry">
            <mxPoint x="837.8901628352492" y="203.20999999999998" as="sourcePoint" />
            <mxPoint x="1003.3251724137931" y="473.3270599999999" as="targetPoint" />
            <Array as="points">
              <mxPoint x="1067.3076923076922" y="203.31" />
              <mxPoint x="1067.3076923076922" y="473.31" />
            </Array>
          </mxGeometry>
        </mxCell>
        <mxCell id="R5bhTOrszpY0GJRiHTYa-60" value="Create/ Delete Rooms" style="edgeLabel;html=1;align=center;verticalAlign=middle;resizable=0;points=[];" vertex="1" connectable="0" parent="R5bhTOrszpY0GJRiHTYa-55">
          <mxGeometry x="0.5084" relative="1" as="geometry">
            <mxPoint x="-15" y="-89" as="offset" />
          </mxGeometry>
        </mxCell>
        <mxCell id="R5bhTOrszpY0GJRiHTYa-56" style="edgeStyle=orthogonalEdgeStyle;rounded=0;orthogonalLoop=1;jettySize=auto;html=1;" edge="1" parent="R5bhTOrszpY0GJRiHTYa-44" source="R5bhTOrszpY0GJRiHTYa-21">
          <mxGeometry relative="1" as="geometry">
            <mxPoint x="640.3846153846155" y="473" as="targetPoint" />
            <Array as="points">
              <mxPoint x="640.3846153846155" y="290" />
              <mxPoint x="565.673076923077" y="290" />
              <mxPoint x="565.673076923077" y="473" />
            </Array>
          </mxGeometry>
        </mxCell>
        <mxCell id="R5bhTOrszpY0GJRiHTYa-61" value="Send / Retrieve Messages" style="edgeLabel;html=1;align=center;verticalAlign=middle;resizable=0;points=[];" vertex="1" connectable="0" parent="R5bhTOrszpY0GJRiHTYa-56">
          <mxGeometry x="-0.1571" y="-1" relative="1" as="geometry">
            <mxPoint x="-25" y="-14" as="offset" />
          </mxGeometry>
        </mxCell>
      </root>
    </mxGraphModel>
  </diagram>
</mxfile>
